<svg width="275" height="275" viewBox="0 0 275 275" fill="none" xmlns="http://www.w3.org/2000/svg">
<path d="M115.547 220.383L134.81 147.059C136.534 140.494 140.745 134.893 146.52 131.491L241.421 75.6054C250.302 70.3755 253.346 58.7903 248.218 49.7318L232.152 21.3474C227.024 12.2889 215.666 9.18467 206.785 14.4146L182.992 28.4259C177.397 31.7211 170.749 32.698 164.464 31.1355L89.9224 12.5609C81.7823 10.3362 73.1049 11.5087 65.8141 15.8022L9.28761 49.09C0.406589 54.3199 -2.63684 65.9051 2.49062 74.9636L18.5572 103.348C23.6847 112.406 35.0429 115.511 43.9239 110.281L175.234 32.9538L172.294 34.8278C166.016 39.178 161.44 45.688 159.461 53.2184L140.129 126.809C138.449 133.205 134.354 138.656 128.728 141.969L33.5724 198.005C24.6914 203.235 21.648 214.82 26.7754 223.879L42.842 252.263C47.9695 261.322 59.3277 264.426 68.2087 259.196L91.8965 245.247C97.5521 241.916 104.282 241.013 110.6 242.74L182.677 262.439C190.817 264.664 199.495 263.491 206.786 259.198L265.712 224.497C274.593 219.267 277.637 207.681 272.509 198.623L256.443 170.239C251.315 161.18 239.957 158.076 231.076 163.306L99.766 240.633L102.706 238.759C108.984 234.409 113.56 227.899 115.539 220.368L115.547 220.383Z" fill="white" style="fill:white;fill-opacity:1;"/>
</svg>
